<svg width="12" height="12" viewBox="0 0 12 12" fill="none" xmlns="http://www.w3.org/2000/svg">
<path d="M10.875 3.74863C10.668 3.74863 10.5 3.91625 10.5 4.12363V4.92575C10.5 7.42138 8.52338 9.37663 6 9.37663C3.47662 9.37663 1.5 7.42138 1.5 4.92575V4.12363C1.5 3.91625 1.332 3.74863 1.125 3.74863C0.918 3.74863 0.75 3.91625 0.75 4.12363V4.92575C0.75 7.84213 3.05588 10.1266 6 10.1266C8.94413 10.1266 11.25 7.84213 11.25 4.92575V4.12363C11.25 3.91625 11.082 3.74863 10.875 3.74863Z" fill="white"/>
<path d="M11.625 1.87361H0.375C0.168 1.87361 0 2.04124 0 2.24861V3.37436C0 3.99424 0.488625 4.49861 1.089 4.49861H10.9114C11.5118 4.49861 12 3.99424 12 3.37436V2.24861C12 2.04124 11.832 1.87361 11.625 1.87361Z" fill="white"/>
<ellipse cx="6" cy="7.65513" rx="1.11111" ry="1.03448" fill="white"/>
</svg>
